<svg xmlns="http://www.w3.org/2000/svg" width="420" height="300" viewBox="0 0 420 300">
<defs>
<linearGradient id="paper" x1="0" y1="0" x2="1" y2="1">
<stop offset="0" stop-color="#fff9d9"/>
<stop offset=".38" stop-color="#e1d58a"/>
<stop offset="1" stop-color="#887b35"/>
</linearGradient>
<linearGradient id="edge" x1="0" x2="0" y1="0" y2="1">
<stop offset="0" stop-color="#fff6bb"/>
<stop offset="1" stop-color="#a39445"/>
</linearGradient>
<linearGradient id="strap" x1="0" x2="1">
<stop offset="0" stop-color="#ffd966"/>
<stop offset=".5" stop-color="#f5b51b"/>
<stop offset="1" stop-color="#c77a00"/>
</linearGradient>
<filter id="shadow" x="-40%" y="-40%" width="180%" height="180%">
<feDropShadow dx="0" dy="22" stdDeviation="16" flood-color="#000000" flood-opacity=".6"/>
</filter>
</defs>
<g filter="url(#shadow)" transform="translate(52 62) rotate(-4)">
  <rect x="20" y="60" width="280" height="110" rx="12" fill="#5b5124" opacity=".55"/>
  <rect x="12" y="48" width="280" height="110" rx="12" fill="#887b37"/>
  <rect x="4" y="36" width="280" height="110" rx="12" fill="#b3a65a"/>
  <rect x="0" y="22" width="280" height="110" rx="12" fill="url(#paper)" stroke="#fff2a7" stroke-width="4"/>
  <rect x="24" y="42" width="232" height="70" rx="9" fill="none" stroke="#4d6f43" stroke-width="5" opacity=".82"/>
  <circle cx="140" cy="77" r="31" fill="#b6aa55" opacity=".78"/>
  <text x="140" y="91" text-anchor="middle" font-family="Arial Black, Arial" font-size="42" fill="#2b3d20">$</text>
  <text x="44" y="74" font-family="Arial Black, Arial" font-size="18" fill="#38502f">PIX</text>
  <text x="206" y="94" font-family="Arial Black, Arial" font-size="22" fill="#38502f">500</text>
  <rect x="62" y="62" width="156" height="34" rx="7" fill="url(#strap)" transform="rotate(-8 140 79)"/>
</g>
<ellipse cx="200" cy="240" rx="130" ry="22" fill="#f5b51b" opacity=".16"/>
</svg>